<?xml version="1.0" encoding="utf-8"?>
<!-- Generator: Adobe Illustrator 17.0.0, SVG Export Plug-In . SVG Version: 6.00 Build 0)  -->
<!DOCTYPE svg PUBLIC "-//W3C//DTD SVG 1.1//EN" "http://www.w3.org/Graphics/SVG/1.1/DTD/svg11.dtd">
<svg version="1.1" id="Layer_1" xmlns="http://www.w3.org/2000/svg" xmlns:xlink="http://www.w3.org/1999/xlink" x="0px" y="0px"
	 width="595.28px" height="841.89px" viewBox="0 0 595.28 841.89" enable-background="new 0 0 595.28 841.89" xml:space="preserve">
<rect x="38" y="48" fill="#FFFFFF" stroke="#000000" stroke-miterlimit="10" width="530" height="51"/>
<rect x="38" y="105" fill="#FFFFFF" stroke="#000000" stroke-miterlimit="10" width="402" height="301"/>
<rect x="449" y="107" fill="#FFFFFF" stroke="#000000" stroke-miterlimit="10" width="119" height="299"/>
<rect x="38" y="420.945" fill="#FFFFFF" stroke="#000000" stroke-miterlimit="10" width="259.64" height="376.055"/>
<rect x="309" y="420.945" fill="none" width="259" height="376.055"/>
<rect x="43" y="54" fill="#FFFFFF" stroke="#000000" stroke-miterlimit="10" width="15" height="17.5"/>
<rect x="43" y="76.5" fill="#FFFFFF" stroke="#000000" stroke-miterlimit="10" width="15" height="17.5"/>
<rect x="64" y="53.5" fill="#FFFFFF" stroke="#000000" stroke-miterlimit="10" width="15" height="17.5"/>
<rect x="64" y="76" fill="#FFFFFF" stroke="#000000" stroke-miterlimit="10" width="15" height="17.5"/>
<rect x="86" y="53.75" fill="#FFFFFF" stroke="#000000" stroke-miterlimit="10" width="15" height="17.5"/>
<rect x="86" y="76.25" fill="#FFFFFF" stroke="#000000" stroke-miterlimit="10" width="15" height="17.5"/>
<rect x="107" y="53.25" fill="#FFFFFF" stroke="#000000" stroke-miterlimit="10" width="15" height="17.5"/>
<rect x="107" y="75.75" fill="#FFFFFF" stroke="#000000" stroke-miterlimit="10" width="15" height="17.5"/>
<rect x="127.667" y="53.875" fill="#FFFFFF" stroke="#000000" stroke-miterlimit="10" width="15" height="17.5"/>
<rect x="127.667" y="76.375" fill="#FFFFFF" stroke="#000000" stroke-miterlimit="10" width="15" height="17.5"/>
<rect x="148.667" y="53.375" fill="#FFFFFF" stroke="#000000" stroke-miterlimit="10" width="15" height="17.5"/>
<rect x="148.667" y="75.875" fill="#FFFFFF" stroke="#000000" stroke-miterlimit="10" width="15" height="17.5"/>
<rect x="170.667" y="53.625" fill="#FFFFFF" stroke="#000000" stroke-miterlimit="10" width="15" height="17.5"/>
<rect x="170.667" y="76.125" fill="#FFFFFF" stroke="#000000" stroke-miterlimit="10" width="15" height="17.5"/>
<rect x="191.667" y="53.125" fill="#FFFFFF" stroke="#000000" stroke-miterlimit="10" width="15" height="17.5"/>
<rect x="191.667" y="75.625" fill="#FFFFFF" stroke="#000000" stroke-miterlimit="10" width="15" height="17.5"/>
<rect x="212.667" y="74.438" fill="#FFFFFF" stroke="#000000" stroke-miterlimit="10" width="15" height="17.5"/>
<rect x="233.667" y="51.438" fill="#FFFFFF" stroke="#000000" stroke-miterlimit="10" width="15" height="17.5"/>
<rect x="233.667" y="73.938" fill="#FFFFFF" stroke="#000000" stroke-miterlimit="10" width="15" height="17.5"/>
<rect x="255.667" y="51.688" fill="#FFFFFF" stroke="#000000" stroke-miterlimit="10" width="15" height="17.5"/>
<rect x="255.667" y="74.188" fill="#FFFFFF" stroke="#000000" stroke-miterlimit="10" width="15" height="17.5"/>
<rect x="276.667" y="51.188" fill="#FFFFFF" stroke="#000000" stroke-miterlimit="10" width="15" height="17.5"/>
<rect x="276.667" y="73.688" fill="#FFFFFF" stroke="#000000" stroke-miterlimit="10" width="15" height="17.5"/>
<rect x="297.333" y="51.813" fill="#FFFFFF" stroke="#000000" stroke-miterlimit="10" width="15" height="17.5"/>
<rect x="297.333" y="74.313" fill="#FFFFFF" stroke="#000000" stroke-miterlimit="10" width="15" height="17.5"/>
<rect x="318.333" y="51.313" fill="#FFFFFF" stroke="#000000" stroke-miterlimit="10" width="15" height="17.5"/>
<rect x="318.333" y="73.813" fill="#FFFFFF" stroke="#000000" stroke-miterlimit="10" width="15" height="17.5"/>
<rect x="340.333" y="51.563" fill="#FFFFFF" stroke="#000000" stroke-miterlimit="10" width="15" height="17.5"/>
<rect x="340.333" y="74.063" fill="#FFFFFF" stroke="#000000" stroke-miterlimit="10" width="15" height="17.5"/>
<rect x="361.333" y="51.063" fill="#FFFFFF" stroke="#000000" stroke-miterlimit="10" width="15" height="17.5"/>
<rect x="361.333" y="73.563" fill="#FFFFFF" stroke="#000000" stroke-miterlimit="10" width="15" height="17.5"/>
<rect x="212.667" y="53.125" fill="#FFFFFF" stroke="#000000" stroke-miterlimit="10" width="15" height="17.5"/>
<rect x="468.333" y="143.667" fill="#FFFFFF" stroke="#000000" stroke-miterlimit="10" width="78.667" height="46"/>
<rect x="468.333" y="207.667" fill="#FFFFFF" stroke="#000000" stroke-miterlimit="10" width="78.667" height="46"/>
<rect x="468.333" y="273.5" fill="#FFFFFF" stroke="#000000" stroke-miterlimit="10" width="78.667" height="46"/>
<rect x="468.333" y="338.5" fill="#FFFFFF" stroke="#000000" stroke-miterlimit="10" width="78.667" height="46"/>
<text transform="matrix(1 0 0 1 454 125.3335)" font-family="'MyriadPro-Regular'" font-size="12">Drag &amp; Drop Elements</text>
<text transform="matrix(1 0 0 1 45.3335 121.3335)" font-family="'MyriadPro-Regular'" font-size="12">Visual Depiction</text>
<text transform="matrix(1 0 0 1 45.6665 439.333)" font-family="'MyriadPro-Regular'" font-size="12">HTML Code</text>
<rect x="309" y="420.945" fill="#FFFFFF" stroke="#000000" stroke-miterlimit="10" width="260" height="376.055"/>
<text transform="matrix(1 0 0 1 317.333 438.333)" font-family="'MyriadPro-Regular'" font-size="12">CSS Code</text>
<text transform="matrix(1 0 0 1 472.333 157.3335)" font-family="'MyriadPro-Regular'" font-size="12">Div</text>
<text transform="matrix(1 0 0 1 37.3335 42)" font-family="'MyriadPro-Regular'" font-size="12">Styling Ribbon</text>
<rect x="386.5" y="74.063" fill="#FFFFFF" stroke="#000000" stroke-miterlimit="10" width="15" height="17.5"/>
<rect x="407.5" y="51.063" fill="#FFFFFF" stroke="#000000" stroke-miterlimit="10" width="15" height="17.5"/>
<rect x="407.5" y="73.563" fill="#FFFFFF" stroke="#000000" stroke-miterlimit="10" width="15" height="17.5"/>
<rect x="429.5" y="51.313" fill="#FFFFFF" stroke="#000000" stroke-miterlimit="10" width="15" height="17.5"/>
<rect x="429.5" y="73.813" fill="#FFFFFF" stroke="#000000" stroke-miterlimit="10" width="15" height="17.5"/>
<rect x="450.5" y="50.813" fill="#FFFFFF" stroke="#000000" stroke-miterlimit="10" width="15" height="17.5"/>
<rect x="450.5" y="73.313" fill="#FFFFFF" stroke="#000000" stroke-miterlimit="10" width="15" height="17.5"/>
<rect x="471.167" y="51.438" fill="#FFFFFF" stroke="#000000" stroke-miterlimit="10" width="15" height="17.5"/>
<rect x="471.167" y="73.938" fill="#FFFFFF" stroke="#000000" stroke-miterlimit="10" width="15" height="17.5"/>
<rect x="492.167" y="50.938" fill="#FFFFFF" stroke="#000000" stroke-miterlimit="10" width="15" height="17.5"/>
<rect x="492.167" y="73.438" fill="#FFFFFF" stroke="#000000" stroke-miterlimit="10" width="15" height="17.5"/>
<rect x="514.167" y="51.188" fill="#FFFFFF" stroke="#000000" stroke-miterlimit="10" width="15" height="17.5"/>
<rect x="514.167" y="73.688" fill="#FFFFFF" stroke="#000000" stroke-miterlimit="10" width="15" height="17.5"/>
<rect x="535.167" y="50.688" fill="#FFFFFF" stroke="#000000" stroke-miterlimit="10" width="15" height="17.5"/>
<rect x="535.167" y="73.188" fill="#FFFFFF" stroke="#000000" stroke-miterlimit="10" width="15" height="17.5"/>
<rect x="386.5" y="52.75" fill="#FFFFFF" stroke="#000000" stroke-miterlimit="10" width="15" height="17.5"/>
</svg>
